<?xml version="1.0" encoding="UTF-8"?>
<svg id="Capa_2" data-name="Capa 2" xmlns="http://www.w3.org/2000/svg" viewBox="0 0 3194.67 3194.67">
  <defs>
    <style>
      .cls-1 {
        fill: none;
        stroke-width: 80px;
      }

      .cls-1, .cls-2 {
        stroke: #000;
        stroke-miterlimit: 10;
      }

      .cls-3 {
        fill: #1c1c1c;
      }

      .cls-4 {
        fill: #2f2a2a;
      }

      .cls-5 {
        fill: #ed4523;
      }
    </style>
  </defs>
  <g id="Layer_1" data-name="Layer 1">
    <path class="cls-5" d="M1503.7,856.74c-1.05-5.23-1.41-10.45,.06-15.67,.39-.29,1.16-.67,1.12-.84-.2-.77-.63-1.48-.98-2.22,4.48-12.32,10.05-3.95,14.11-.19,18.04,16.72,32.62,36.33,45.73,57.07,60.9,96.36,88.6,201.64,76.47,314.97-12.29,114.72-64.56,207.41-163.94,270.3-28.18,17.83-43.76,43.92-50.11,76.63,8.21,1.09,16.06,.46,23.41,3.72,11.14,4.94,17.64,13.14,16.43,25.36-1.13,11.34-9.4,16.48-19.99,18.28-1.02,.17-2.08,.11-3.11,.27-19.66,3.1-20.1,3.39-9.15,20.4,15.44,23.98,11.1,51.33,13.16,77.26,5.99,75.24,10.29,150.62,15.14,225.95,2.51,38.96,4.54,77.94,7.25,116.89,4.77,68.5,10.23,136.94,14.78,205.45,3.87,58.17,6.5,116.43,10.43,174.6,1.59,23.45,1.63,46.52-6.3,68.88-20.82,58.7-71.56,90.79-123.97,88.17-67.25-3.36-114.85-49.69-123.34-112.62-5.5-40.73,2.51-80.87,4.84-121.22,3.84-66.52,9.37-132.94,14.29-199.4,5.84-78.9,12.06-157.78,17.59-236.7,3.31-47.24,5.64-94.55,8.41-141.83,6.5-1.92,8.74-11.8,17.54-9.4-2.74,11.1-6.35,22.36,5.04,31.16,5.01,3.87,10.64,4.69,16.01,1.49,11.28-6.73,10.44-17.9,10.3-29.06-.31-26.05,.49-52.13-.36-78.16-.38-11.48,2.32-20.16,11.61-27.01,13.24-9.78,17.85-23,11.96-38.42-5.79-15.16-18.66-19.91-33.89-19.62-9.88,.19-19.76,.33-29.64,.69-11.59,.43-21.31-2.73-23.11-15.61-1.8-12.86,4.64-21.66,16.85-26.09,.97-.35,2-.54,3.01-.82,20.59-5.67,19.85-5.41,12.52-26.19-9.18-26.02-27.76-42.93-50.02-57.39-86.05-55.87-135.66-136.72-152.77-236.24-24.64-143.32,14.21-271.58,101.11-386.31,6.18-8.16,12.2-22.28,24.28-18.31,12.66,4.15,5.14,18.36,5.18,27.71,.52,130.28,.4,260.56,.38,390.84,0,8.93,.03,17.84,5.16,25.59,6.29,9.51,13.92,17.47,26.75,14.36,12.82-3.11,21.44-11.06,21.67-24.9,.78-48.44,1.42-96.89,1.53-145.34,.24-107.87,.12-215.74,.16-323.6,0-3.65-.07-7.3,.1-10.94,.78-17.12,10.35-28.33,24.5-28.77,13.58-.42,26.08,12.94,26.23,29.16,.35,35.95,.24,71.91,.27,107.87,.11,121.42,.18,242.84,.32,364.26,.02,16.14,11.49,30.19,26.06,32.38,14.11,2.12,25.68-7.17,30.64-24.54,.27-.95,1.01-1.77,1.53-2.65,1.27,.06,2.55,.12,3.82,.18,16.44,.59,31.49,13.93,48.93,5.36,5.43,13.25,13.15,23.66,29.54,21.01,14.8-2.39,22.33-12.87,23.53-31.27,.17-2.55,.57-5.08,.87-7.63,8.9-8.57,8.93-35.13,.05-43.8,0-8.34,0-16.69,.01-25.03,7.67-1.22,6.09-7.28,6.09-12.19,.06-101.37,.06-202.74,0-304.11,0-4.89,1.64-10.98-6.08-12.17Z"/>
    <path class="cls-5" d="M1597.33,1676.34c9.39,.11,18.79,.22,28.18,.34,3.02,3.64,6.09,3.51,9.2,.13,49.74-.59,99.35,.07,148.72-9.64,153.19-30.13,264.38-147.65,287.97-285.78,26.79-156.89-52.74-306.19-197.46-377.19-47.98-23.54-98.94-36.7-152.22-40.46-5.87-.41-9.4-1.44-11.79-7.25-30.62-74.5-77.17-137.66-136.49-191.68-.68-.62-.87-1.77-1.29-2.69,.63-.74,1.26-2.07,1.9-2.09,78-1.37,156.27-2.03,232.69,15.43,199.94,45.68,345.64,159.23,425.55,350.88,34.64,83.06,44.08,170.49,34.05,259.93-24.82,221.41-195.19,414.5-418.35,465.82-45.62,10.49-91.55,16.9-138.3,17.72-.3-1.98-.56-4.33-3.09-4.31-2.51,.03-2.76,2.37-3.05,4.36-46.89,.03-93.79,.06-140.68,.09-.91-.89-1.82-1.78-2.73-2.68-.06-6.28-.11-12.56-.17-18.85,2.5-.39,5.07-.86,5.43-3.99,.46-4.01-2.3-4.97-5.5-5.38-1.49-51.09-1.31-102.17-.15-153.26,4.48-3.27,2.89-8.1,3.19-12.45,2.1,.13,4.21,.27,6.31,.4,8.48,10.33,18.31,6.07,28.07,2.59Z"/>
    <path d="M1746.74,2005.04c31.41,12.18,49.35,42.83,44.01,75.2-2.19,13.27-16.46,28.13-29.98,30.54-14.51,2.59-26.3-1.49-35.05-14.24-19.23-28-30.8-31.82-65.55-22.81-10.7,2.02-6.42,10.62-6.43,16.38-.35,150.91-.42,301.81-.54,452.72-9.98-1.16-12.18,6.25-14.04,13.35-3.01,11.46-13.55,13.92-22.07,17.05-6.98,2.56-8.84-13.38-18.94-8.78-2.34-5.19,1.2-11.45-2.75-16.31-5.11-1.64-3.68,6.93-7.94,5.18-4.35-1.78-2.27-6.36-2.54-9.74-.34-4.14-.1-8.33-.1-12.49,0-167.19,.08-334.38-.12-501.58-.02-13.13-2.36-26.49,17.13-26.59,.62,0,1.22-2.66,1.83-4.08,38.61-.21,77.23-.41,115.84-.62,.96-.18,1.87-.04,2.73,.4,5.58,12.08,16.51,3.62,24.51,6.42Z"/>
    <path class="cls-2" d="M1825.37,1222.74c41.58,12.06,64.48,41.93,74.8,81.94,10.21,39.55-.15,76.36-21.07,110.16-39.51,63.83-100.08,96.08-171.14,111.36-31.77,6.83-64.01,10.12-100.19,8.2,8.24-9.53,14.45-16.7,20.65-23.88,10.15-5.54,20.29-11.08,18.47-25.37,0,0-.03,.02-.02,.02,12.58-10.4,25.15-20.79,37.73-31.19,0,0-.02,.09-.02,.09,13.25-1.82,29.93,7.2,37.7-11.96,34.78-16.15,66.47-36.1,88.59-68.82,16.67-24.65,18.7-50.28,4.11-67.85-16.64-20.04-36.71-17.23-47.28,6.61-9.03,20.36-22.04,29.11-38.56,25.93-17.85-3.44-27.35-18.65-29.18-40.71-3.13-37.68,34.57-70.2,62.57-74.63,20.95,.04,41.9,.07,62.85,.1Z"/>
    <path class="cls-4" d="M966.44,1660.47c-14.33-37.84-13.9-77.13-11.03-116.56,.9-12.36,3.28-24.61,4.89-36.92,.98-7.49,3.42-13.15,12.66-11.75,58.88,8.89,116.25,22.54,163.86,60.95,25.74,20.77,44.96,47.06,53.78,79.82-2.55,7.98-9.1,10.17-16.34,12.14-28.18,7.68-56.18,5.13-84.18-.79-4.32-.91-9.67-4.86-12.41,.61-1.96,3.92,.83,9.11,3.53,12.93,5.38,7.61,11.14,14.96,16.74,22.42,6.22,8.29,3.72,12.9-6.1,14.25-42.11,5.81-81.28,.67-113.26-30.8-3.48-3.42-7.29-5.75-12.14-6.29Z"/>
    <path class="cls-5" d="M1449.67,1271.92c-17.44,8.57-32.49-4.77-48.93-5.36-1.22-1.07-2.44-2.14-3.66-3.21-.14-55.21-.4-110.41-.38-165.62,.05-101.61,.19-203.22,.47-304.82,.06-21.9,8.47-32.78,24.36-32.91,15.48-.13,26.25,12.81,26.3,33.79,.29,122.45,.04,244.9,.46,367.34,.13,36.93-2.1,73.9,1.38,110.79Z"/>
    <path class="cls-3" d="M1178.82,2029.51c-25.1,4.2-47.23,13.96-66.97,30.8-22.78,19.43-35.06,63.98-12.07,91.26,8.88,10.54,15.84,23.22,12.29,38.69-5.98,26.05-42.38,29.58-60.85,16.58-24.41-17.18-36.84-41.74-41.17-70.71-12.72-85.14,47.57-150.56,117.57-174.86,9.22-3.2,18.48-7.11,28.63-6.78,6.71,.11,13.42,.17,20.12,.35,3.72,.1,8.34,.63,8.09,5.2-1.29,23.2,6.44,47.17-5.64,69.47Z"/>
    <path d="M966.44,1660.47c4.85,.54,8.66,2.86,12.14,6.29,31.98,31.47,71.15,36.61,113.26,30.8,9.82-1.35,12.32-5.96,6.1-14.25-5.6-7.46-11.35-14.81-16.74-22.42-2.7-3.81-5.49-9-3.53-12.93,2.73-5.47,8.09-1.52,12.41-.61,28,5.92,56,8.47,84.18,.79,7.24-1.97,13.79-4.16,16.34-12.14,3.01,7.32,4.06,14.89,4.05,22.84-.1,45.35,.02,90.7,.19,136.05,.03,7.22,.2,13.51-10.11,13.11-67.24-2.63-130.16-16.26-177.31-69.8-19.85-22.54-34.64-47.95-40.97-77.74Z"/>
    <path d="M1603.66,1998.84c-.61,1.42-1.22,4.07-1.83,4.08-19.49,.09-17.14,13.46-17.13,26.59,.2,167.19,.13,334.38,.12,501.58,0,4.17-.24,8.35,.1,12.49,.27,3.37-1.81,7.95,2.54,9.74,4.26,1.75,2.83-6.82,7.94-5.18,3.95,4.86,.41,11.12,2.75,16.31,10.1-4.6,11.96,11.35,18.94,8.78,8.52-3.13,19.06-5.58,22.07-17.05,1.86-7.1,4.06-14.52,14.04-13.35,.18,1.18,.36,2.35,.54,3.53-2.13,17.1-16.55,30.45-33.95,31.43-22.19,1.26-36.37-8.39-41.32-28.13,.03-178,.22-356-.21-533.99-.03-13.93,4-19.29,17.61-17.1,2.54,.41,5.19,.2,7.78,.28Z"/>
    <path d="M1603.66,1998.84c-2.6-.08-5.24,.13-7.78-.28-13.61-2.18-17.65,3.17-17.61,17.1,.43,178,.24,355.99,.21,533.99-4.78-5.32-3.12-11.86-3.12-17.94-.11-172.99,.03-345.99-.46-518.98-.04-13.64,3.25-17.92,17.26-17.54,36.91,1,73.86,.29,110.8,.39,5.6,.02,11.53-1.35,16.55,2.64-38.61,.2-77.23,.41-115.84,.62Z"/>
    <path class="cls-5" d="M1503.7,856.74c7.72,1.19,6.07,7.28,6.08,12.17,.07,101.37,.07,202.74,0,304.11,0,4.91,1.57,10.97-6.09,12.19,0-109.49,.01-218.98,.02-328.48Z"/>
    <path d="M1653.74,2546.35c-.18-1.18-.36-2.35-.54-3.53,.11-150.91,.18-301.82,.53-452.72,.01-5.75-4.26-14.36,6.43-16.38-4.48,9.91-3.23,20.47-3.24,30.82-.11,139.68-.08,279.36-.24,419.04,0,7.62,2.02,15.71-2.95,22.76Z"/>
    <path class="cls-5" d="M1291.31,1688.88c.23-17.54-2.13-35.15,5.69-52.14,5.56-12.07,12.39-15.87,25.88-7.58-19.1,10.38-18.74,28.02-18.67,45.83,.1,25.49,2.2,50.99-.4,76.46-7.5-1.12-6.24-6.96-6.28-11.94-.1-12.86,.03-25.73-.08-38.59-.04-4.94,1.34-10.82-6.15-12.04Z"/>
    <path class="cls-5" d="M1291.31,1688.88c7.49,1.22,6.1,7.1,6.15,12.04,.11,12.86-.02,25.73,.08,38.59,.04,4.97-1.22,10.82,6.28,11.94-.09,3.13-.17,6.26-.26,9.39-8.8-2.4-11.04,7.48-17.54,9.4,2.5-27.07,.37-54.44,5.3-81.35Z"/>
    <path d="M1178.82,2029.51c12.07-22.3,4.35-46.27,5.64-69.47,.25-4.57-4.36-5.1-8.09-5.2-6.7-.18-13.41-.24-20.12-.35,.85-.57,1.65-1.48,2.58-1.64,36.81-6.29,29.24-6.32,29.65,23.29,.2,14.47-.11,28.95-.03,43.43,.03,6.64-1.48,11.42-9.62,9.95Z"/>
    <path class="cls-2" d="M1825.37,1222.74c-20.95-.03-41.9-.07-62.85-.1,20.96-8.89,41.91-8.12,62.85,.1Z"/>
    <path class="cls-5" d="M1503.67,1210.24c8.88,8.67,8.85,35.23-.05,43.8,.02-14.6,.03-29.2,.05-43.8Z"/>
    <path class="cls-2" d="M1722.28,1442.11c-7.77,19.16-24.45,10.14-37.7,11.96,11.95-5.95,25.07-8.17,37.7-11.96Z"/>
    <path d="M1646.9,1485.15c1.83,14.29-8.31,19.83-18.47,25.37,4.45-9.7,9.78-18.76,18.47-25.37Z"/>
    <path class="cls-5" d="M1597.33,1676.34c-9.76,3.47-19.58,7.73-28.07-2.59,9.52-.89,18.83,.5,28.07,2.59Z"/>
    <path d="M1746.74,2005.04c-8-2.79-18.94,5.67-24.51-6.42,8.87-.54,17.19,1.03,24.51,6.42Z"/>
    <path class="cls-5" d="M1562.96,1673.35c-.3,4.34,1.29,9.18-3.19,12.45,.14-4.39-5.28-10.2,3.19-12.45Z"/>
    <path class="cls-5" d="M1559.92,1839.06c3.19,.4,5.96,1.37,5.5,5.38-.36,3.13-2.93,3.6-5.43,3.99-.02-3.12-.04-6.24-.07-9.36Z"/>
    <path class="cls-5" d="M1703.56,1869.85c.28-1.99,.53-4.33,3.05-4.36,2.53-.03,2.79,2.33,3.09,4.31-2.05,.02-4.09,.04-6.14,.05Z"/>
    <path class="cls-5" d="M1634.72,1676.81c-3.12,3.38-6.19,3.51-9.2-.13,3.07,.04,6.13,.09,9.2,.13Z"/>
    <path class="cls-5" d="M1503.9,838.01c.35,.73,.78,1.45,.98,2.22,.04,.17-.72,.55-1.12,.84,.05-1.02,.09-2.04,.14-3.06Z"/>
    <path class="cls-5" d="M1397.09,1263.35c1.22,1.07,2.44,2.14,3.66,3.21-1.27-.06-2.55-.12-3.82-.18,.06-1.01,.11-2.02,.17-3.03Z"/>
    <path class="cls-5" d="M1560.15,1867.27c.91,.89,1.82,1.78,2.73,2.68-2.21,.44-3.09-.48-2.73-2.68Z"/>
    <circle class="cls-1" cx="1597.33" cy="1597.33" r="1557.33"/>
  </g>
</svg>